<svg width="30" height="30" viewBox="0 0 30 30" fill="none" xmlns="http://www.w3.org/2000/svg">
<path d="M15 0C6.72753 0 0 6.72615 0 14.9969C0 20.9415 3.47764 26.0923 8.50636 28.5169V28.5292H8.53098C10.4883 29.4708 12.6857 30 15 30C23.2725 30 30 23.2738 30 15.0031C30 6.72615 23.2725 0 15 0ZM15 1.23077C22.5893 1.23077 28.769 7.40923 28.769 14.9969C28.769 17.1754 28.2581 19.2431 27.3533 21.0769C25.3714 20.1169 23.3586 19.4031 21.3275 18.9169V7.43385C21.3275 7.03385 21.0135 6.71385 20.6196 6.71385H18.096H11.7378H9.2142C8.82643 6.71385 8.50636 7.03385 8.50636 7.43385V18.9723C6.53673 19.4585 4.5794 20.16 2.65285 21.0831C1.7419 19.2431 1.23102 17.1815 1.23102 14.9969C1.23102 7.40923 7.41075 1.23077 15 1.23077ZM3.44686 22.4677C5.07796 21.6615 6.77062 21.04 8.51252 20.6092V27.1323C6.45055 26.0308 4.70866 24.4185 3.44686 22.4677ZM11.7378 28.3692V13.0031C11.7378 11.2246 13.1966 9.75385 14.9384 9.75385C16.6803 9.75385 18.096 11.1938 18.096 12.9662C18.096 12.9785 18.0899 12.9908 18.0899 13.0031H18.096V18.3508C16.6126 18.1785 15.1231 18.1231 13.6336 18.2031L12.4087 19.9815C14.3168 19.8215 16.1756 19.8338 18.0098 20.0431C18.0283 20.0431 18.0406 20.0431 18.0591 20.0492C18.0714 20.0492 18.0837 20.0492 18.1022 20.0554C18.4222 20.0923 19.5856 20.24 20.6504 20.5046L18.1022 21.3723V28.4185C17.105 28.6462 16.071 28.7754 15.0123 28.7754C13.8736 28.7631 12.7842 28.6215 11.7378 28.3692ZM21.3213 27.2185V20.64C23.057 21.0769 24.7743 21.7169 26.4977 22.5538C25.2052 24.5169 23.4202 26.1292 21.3213 27.2185Z" fill="url(#paint0_linear_1712_15591)"/>
<defs>
<linearGradient id="paint0_linear_1712_15591" x1="14.9998" y1="30.649" x2="14.9998" y2="-4.59982" gradientUnits="userSpaceOnUse">
<stop offset="0.0858" stop-color="#8D29C1"/>
<stop offset="0.2383" stop-color="#942BBB"/>
<stop offset="0.4667" stop-color="#A92FAC"/>
<stop offset="0.7413" stop-color="#CA3793"/>
<stop offset="1" stop-color="#F03F77"/>
</linearGradient>
</defs>
</svg>
